<svg width="18" height="18" viewBox="0 0 18 18" fill="none" xmlns="http://www.w3.org/2000/svg">
<path fill-rule="evenodd" clip-rule="evenodd" d="M12.7034 4.91133C11.7554 4.02509 10.4903 3.54228 9.18131 3.56212C6.78605 3.56212 4.75176 5.14611 4.02642 7.27904C3.64183 8.39676 3.64183 9.60713 4.02642 10.7249H4.02979C4.75849 12.8545 6.78941 14.4385 9.18469 14.4385C10.4211 14.4385 11.4826 14.1285 12.3053 13.5809V13.5787C13.2735 12.9504 13.9348 11.9616 14.1406 10.8439H9.18132V7.3783H17.8414C17.9494 7.98016 18 8.59524 18 9.20701C18 11.9443 17.002 14.2586 15.2655 15.826L15.2673 15.8274C13.7458 17.203 11.6576 18 9.18132 18C5.70985 18 2.53527 16.082 0.976655 13.043C-0.325555 10.5 -0.325552 7.50395 0.976665 4.96096C2.53528 1.91862 5.70985 0.000606479 9.18131 0.000606479C11.4619 -0.0258486 13.6649 0.814101 15.3247 2.34188L12.7034 4.91133Z" fill="black"/>
</svg>
