<svg width="103" height="102" viewBox="0 0 103 102" fill="none" xmlns="http://www.w3.org/2000/svg">
<path d="M51.5 0L52.3709 23.5846C52.9037 38.0137 64.439 49.5854 78.8155 50.1128L103 51L78.8155 51.8872C64.439 52.4146 52.9037 63.9863 52.3709 78.4154L51.5 102L50.6291 78.4154C50.0963 63.9863 38.561 52.4146 24.1845 51.8872L0 51L24.1845 50.1128C38.561 49.5854 50.0963 38.0137 50.6291 23.5847L51.5 0Z" fill="white"/>
<path d="M76.9067 6.83266L65.9117 27.6946C59.1851 40.4579 63.4102 56.2682 75.5979 63.9395L96.1003 76.8446L74.7139 65.4762C62.0008 58.7183 46.2462 62.9509 38.5967 75.1794L26.0933 95.1673L37.0883 74.3053C43.8149 61.542 39.5898 45.7317 27.4021 38.0604L6.89969 25.1554L28.2861 36.5237C40.9992 43.2816 56.7538 39.049 64.4033 26.8205L76.9067 6.83266Z" fill="white"/>
<path d="M95.5056 25.5L75.5909 38.0493C63.4072 45.7269 59.1901 61.5394 65.9233 74.2992L77.25 95.7642L64.3922 75.1864C56.7489 62.954 40.9965 58.7133 28.28 65.4647L7.49436 76.5L27.4091 63.9507C39.5928 56.2731 43.8099 40.4606 37.0767 27.7008L25.75 6.23585L38.6078 26.8136C46.2511 39.046 62.0035 43.2867 74.72 36.5353L95.5056 25.5Z" fill="white"/>
</svg>
